<mxfile host="app.diagrams.net" modified="2023-08-02T23:20:17.854Z" agent="Mozilla/5.0 (Windows NT 10.0; Win64; x64) AppleWebKit/537.36 (KHTML, like Gecko) Chrome/115.0.0.0 Safari/537.36" etag="D85hV3FsRFfTNxooH9xr" version="21.6.6" type="device">
  <diagram name="Page-1" id="x0iGLv4zi8NKhcH6asGe">
    <mxGraphModel dx="975" dy="723" grid="1" gridSize="10" guides="1" tooltips="1" connect="1" arrows="1" fold="1" page="1" pageScale="1" pageWidth="850" pageHeight="1100" math="0" shadow="0">
      <root>
        <mxCell id="0" />
        <mxCell id="1" parent="0" />
        <mxCell id="tWbIXncWVD5Oe4O2OEIH-3" value="" style="rounded=0;whiteSpace=wrap;html=1;" parent="1" vertex="1">
          <mxGeometry x="170" y="240" width="100" height="160" as="geometry" />
        </mxCell>
        <mxCell id="tWbIXncWVD5Oe4O2OEIH-5" value="React.js" style="text;html=1;strokeColor=none;fillColor=none;align=center;verticalAlign=middle;whiteSpace=wrap;rounded=0;" parent="1" vertex="1">
          <mxGeometry x="190" y="344" width="60" height="30" as="geometry" />
        </mxCell>
        <mxCell id="tWbIXncWVD5Oe4O2OEIH-7" value="" style="rounded=0;whiteSpace=wrap;html=1;" parent="1" vertex="1">
          <mxGeometry x="180" y="240" width="80" height="20" as="geometry" />
        </mxCell>
        <mxCell id="tWbIXncWVD5Oe4O2OEIH-8" value="3000" style="text;html=1;strokeColor=none;fillColor=none;align=center;verticalAlign=middle;whiteSpace=wrap;rounded=0;" parent="1" vertex="1">
          <mxGeometry x="190" y="235" width="60" height="30" as="geometry" />
        </mxCell>
        <mxCell id="YrSy1kAqM34zxY3bh8e3-18" value="" style="edgeStyle=orthogonalEdgeStyle;rounded=0;orthogonalLoop=1;jettySize=auto;html=1;" parent="1" source="tWbIXncWVD5Oe4O2OEIH-9" edge="1">
          <mxGeometry relative="1" as="geometry">
            <mxPoint x="450" y="320" as="targetPoint" />
          </mxGeometry>
        </mxCell>
        <mxCell id="tWbIXncWVD5Oe4O2OEIH-9" value="" style="rounded=0;whiteSpace=wrap;html=1;" parent="1" vertex="1">
          <mxGeometry x="310" y="240" width="100" height="160" as="geometry" />
        </mxCell>
        <mxCell id="tWbIXncWVD5Oe4O2OEIH-11" value="Express.js +&lt;br&gt;Node.js" style="text;html=1;strokeColor=none;fillColor=none;align=center;verticalAlign=middle;whiteSpace=wrap;rounded=0;" parent="1" vertex="1">
          <mxGeometry x="330" y="360" width="60" height="30" as="geometry" />
        </mxCell>
        <mxCell id="tWbIXncWVD5Oe4O2OEIH-12" value="" style="rounded=0;whiteSpace=wrap;html=1;" parent="1" vertex="1">
          <mxGeometry x="320" y="240" width="80" height="20" as="geometry" />
        </mxCell>
        <mxCell id="tWbIXncWVD5Oe4O2OEIH-13" value="8080" style="text;html=1;strokeColor=none;fillColor=none;align=center;verticalAlign=middle;whiteSpace=wrap;rounded=0;" parent="1" vertex="1">
          <mxGeometry x="330" y="235" width="60" height="30" as="geometry" />
        </mxCell>
        <mxCell id="tWbIXncWVD5Oe4O2OEIH-14" value="" style="outlineConnect=0;dashed=0;verticalLabelPosition=bottom;verticalAlign=top;align=center;html=1;shape=mxgraph.aws3.android;fillColor=#8CC64F;gradientColor=none;aspect=fixed;" parent="1" vertex="1">
          <mxGeometry x="335" y="280" width="50" height="57.21" as="geometry" />
        </mxCell>
        <mxCell id="tWbIXncWVD5Oe4O2OEIH-15" value="" style="shape=image;html=1;verticalAlign=top;verticalLabelPosition=bottom;labelBackgroundColor=#ffffff;imageAspect=0;aspect=fixed;image=https://cdn1.iconfinder.com/data/icons/unicons-line-vol-5/24/react-128.png" parent="1" vertex="1">
          <mxGeometry x="190" y="284" width="60" height="60" as="geometry" />
        </mxCell>
        <mxCell id="tWbIXncWVD5Oe4O2OEIH-16" value="" style="rounded=0;whiteSpace=wrap;html=1;" parent="1" vertex="1">
          <mxGeometry x="450" y="240" width="100" height="160" as="geometry" />
        </mxCell>
        <mxCell id="tWbIXncWVD5Oe4O2OEIH-17" value="MongoDB" style="text;html=1;strokeColor=none;fillColor=none;align=center;verticalAlign=middle;whiteSpace=wrap;rounded=0;" parent="1" vertex="1">
          <mxGeometry x="470" y="344" width="60" height="30" as="geometry" />
        </mxCell>
        <mxCell id="tWbIXncWVD5Oe4O2OEIH-18" value="" style="rounded=0;whiteSpace=wrap;html=1;" parent="1" vertex="1">
          <mxGeometry x="460" y="240" width="80" height="20" as="geometry" />
        </mxCell>
        <mxCell id="tWbIXncWVD5Oe4O2OEIH-19" value="27017" style="text;html=1;strokeColor=none;fillColor=none;align=center;verticalAlign=middle;whiteSpace=wrap;rounded=0;" parent="1" vertex="1">
          <mxGeometry x="470" y="235" width="60" height="30" as="geometry" />
        </mxCell>
        <mxCell id="tWbIXncWVD5Oe4O2OEIH-21" value="" style="dashed=0;outlineConnect=0;html=1;align=center;labelPosition=center;verticalLabelPosition=bottom;verticalAlign=top;shape=mxgraph.weblogos.mongodb;aspect=fixed;" parent="1" vertex="1">
          <mxGeometry x="485" y="280" width="30" height="62.79" as="geometry" />
        </mxCell>
        <mxCell id="YrSy1kAqM34zxY3bh8e3-2" value="Docker" style="swimlane;" parent="1" vertex="1">
          <mxGeometry x="120" y="40" width="480" height="400" as="geometry" />
        </mxCell>
        <mxCell id="YrSy1kAqM34zxY3bh8e3-3" value="" style="rounded=0;whiteSpace=wrap;html=1;" parent="YrSy1kAqM34zxY3bh8e3-2" vertex="1">
          <mxGeometry x="100" y="80" width="120" height="60" as="geometry" />
        </mxCell>
        <mxCell id="YrSy1kAqM34zxY3bh8e3-4" value="" style="shape=image;imageAspect=0;aspect=fixed;verticalLabelPosition=bottom;verticalAlign=top;image=data:image/png,iVBORw0KGgoAAAANSUhEUgAAANEAAADyCAMAAADk3NBFAAAAnFBMVEUAljn///8AlTVCqWIAkCYAjh/B4csAkzAAlDMAjyIAkSsAjyUAjRz5/fvA4Mn1+/fo6Oigz63J5NGLi4vX691Trm2DwpV2vIoon02u17rw+fOTyqPU6tvO59aZzailpaXz8/OWlpY0o1ZktXzm9OtVr29uuYMWm0Tg8Oa4uLja2tqt1rk4pFmWy6VGqWQAhwDExMSsrKzR0dGHh4c56wiyAAAKGElEQVR4nOWde3uiOhDGkwgNRLy2BS9trVov1dbT7fn+3+2Adq0XEiY3JJz3eXaf7h8r/IR5OzOECcJ1E7r1CRhXOUQPvTiJew+lHKsEok5MQ0YpZSGNO/YPZ5+oxxj6K8Z61o9nm+hu4KFTeYO+5SPaJXp7DAk6F/Ef36we0yZRK/YDdK3Aj1sWj2qRaItYDs8+nNDQ3mGtET3NmhyeTM3Zk60DWyIazaPLALoIp2g+snNoO0RjRoU8mSgbWzm2DaL2ihdAF+G0als4unmi9ceVY3NvvfBjbfz4polGSa5j8xT4ielwMkzUo8UBdC5KDSdGRonaK68Y4UreymhiZJBovfOhAXQuEi0MJkbGiDpJKBNA56KeucTIFNFpzaAiRk0lRmaI+gNRygNTOHs2ci4miN7migF0LuIbSYwMEMWerGPzZCQx0iYaUr0AOhdD2omRJtHzR2iQJ1O402wZaRGNzATQuYIw0eoY6RCNQ1MBdC7qvdyECFozqMgb3JVO9LAD1wwqIqFyYqRG1JGrGVSU1hlq4aRE1AMU3fpianWGAlF/oFIzqEipAStNlNMmtSeVcJIkasWR7QA6F5VuwMoRbYk9x+ZJtgErQyRuk9pT80OmAQsnKmyT2pNUAxZMNDZWM6hIos4AErW5zxnKErgBCyJ6aJTo2DyRsAFqwAKIRknJjs1TEEEasMVEPaNFqp4giVERUV+pTWpPxYmRmGj9aKFI1RPxH8XhJCJqxRptUnuioTAxEhBtg+oE0LkY2SoQPRtok9pTc8BtwHKIDLVJ7Yn4c06dkU9025QHJurlJ0Z5RMMb1AwqYiQvMbomSlOeW58qWGHjugF7SdRZVtKxeQrC5WXH6ILoxYEAOtdVA/aM6K5iKQ9M3uqOQ7Qus8tjUiQ8TYyORC37bVJ7CvykdUlUpZpBRb91xoHoodIpD0zNwcMvUa/iKQ9MxO/9JYqjW5+MIUXxgWhYF6AUaZgRjdy2hHPRUUqU1ImIJRi1XEwT+PJaqF0zojaKXUtNxaIxmrub++QpmKOd1i9XElAaGP31TPQ+j+xQQ/n/E9Zks0WyfBwwz1BZxULUWM5nrKn8caShTuStxseS+G04p572pWLo86cq6C9VvyJ1Inr5dLSz1V0U4I1PWqXrhVrurEzUnOc0arda9x67eNg69lU+RZXIi695suuk+MVmCq/68y8qPSlFIjrPBUr1qfTFpgpzWm9LhUuuSET4zwa2aol87nfUUcg41Yg80ZKJrVL/0sttYr/II6kRMQFQtjJS+gN5t7FCFq1ExI+igxby3yzvqi+kUzQlosL3jj+kI/ra6A6Sv+2UiLyipRIjJPuZPsdq5EsdNaLCVbEPsh7ucz7oripEuC3p4dUnwmO55MEBIjyXimkXiPBMxnidIOrIGJ4TRPhB4mzcIJIxPEeIJDI8V4jwEmp4zhCBMzx3iKCG5w4RXsNCySEi3AYlrS4RwTo6ThGBDM8tIojhOUYEMDzHiPC68L5zjQjfFWV4zhHhlwIPd4+oyPCqSiRaKb8TGl5ViXYCotZKdJyqEv2T/1TpoDfRyVWVyPdF/eO+IB2qLBGKRC8H9fhI1SVCTPTSNH9NVYWJyEpkeA2e4VWYCFElw6syEfISAdKac4aVJkJiw8vP8KpNhHyh4eVmeBUnKjC8vJOsOpHY8PIyvKoTiQ0P5xhe5YnEhvd2/Yu2+kQFhnflDg4QiTO87SWSC0RyhucEkZThOUGEaENA1FqdPXh2gwixpQDp7ewiOUKEQpHhPZ9meK4QIV/UBzs1PGeIkCcadxH/nq47RGLDezzGkjtEYsPDR8NziEhseCNK3CNCoWiS6HPoIBGKAIbnFhHE8BwjIivRGNH9WmrHiBD9EBDhQeAeUbHhOUckNrwn30EicYY3jBwk4r5HsFf8j4NEBIkMj9cNqzKROMPj0VaaSGx4ThKh8LNuRCiS3nmh6kSIye5IVXkiseG5SFSQ4blIJGt4t37rDbJsWM7wXCBCvozhOUEkzvCcJJIxPDeIZAzPESLECl7jdo8IhdCh984QgTM8B37DHj8DtrWWQ0RAw3PnrkMoGNSNCGZ4ThGhJsDw3CLaD22sFxGKCg2vLCLOdzuSHUJDSNEWHyURMU6JA3xT9ESFhtcrZ3JLwOmAbuWn6rCFmEh+AKLaBKQo/5G+/HCf1PBEL49gXNIEJM7AoJyljQAJV9ooXHXV2Wh5F2muNrwu4iN1ypuNRnOWod6p7oDgc2+8RXlEOfeKvNEd5e3yTXypMoVReWri5Rfb15kBGeQ91GwtlD5SfbKldzpsvxVrjnD3VtuL0BwStbDUmD4ahMuf5cLrT/1dUYhHk/Zxre76RXmbCJ15qoh63moxn9GmmXHa1GvS3TxJFtknqo+tbehN8SUB1fnv159HdYcCk10NJy3Xbxp2/SaWd2pG1Knh5H88qlMg7XdnqN8OGnXa5SRrmB12ornZfsMmRaLjTjQYP9Vit6DDyPO67uiEa7jrFq7fzmiZ6rZ7Xaa67TCIa7gLZObkNdupM5M7u6nmPSX5f+x4i2u4KzGu387Rmeq2uzeu4Q7sOEuMKhdOxH8ULzkUE1UvMfJWolEWEKKszqiOk//WDDpEeJRE1QinIEqKlgvAiPZbmN8+nEjYAK3ZBRFh3Ea3dnK2Aq4yBBLdOjGiDLoQFE6ER/ObdYxINC8KoO73pitLlCZGs9skRs2PJ/GJvb7fT97fJ/dfskRpYnSDOoNd7mV4pe79V+sANn2VJUoTo5KdnPrClOcA1P374/dUmiitM8rsGJFwIRoNddB0k0JNp9PJBuOvd3miNDHS3cASLG9WlPKk2kwOl6n1lV2r6asCUbbsrQwnh6Q8qd6//95495vsX0pEuGO/ARv4CewdmGk3I0otYZP99f2uRpTWGTur4QQKoB+ilKM7nUymk/QHvFEmShOjlT0n9wbwqeiT/TXadLuT9/Rf31/qRNluQHbCiXqgAPrRMY72t96fjQ4RHi0tlLhBCAygH3Wn6Z9/M2dI/3q9V3HvUz19mG7AhjvYay+/+vOFX7+yGEr/mnzrEmE8NPoojSHpd89Tb/g6wv1RyBmuFRurMyRqhjNNsnQBt76nmTcYIDLVgCV+Yc3A02aSZkHTP/v8zgQRxn0DiVE4K6gZxHp9/fnBDFGWGOmFEwuK33SByRRRmhhpNGCpV1gzgGWMKEuMFMOJROCUByCDRFlipBJO3gBQM8BllEhloQewZoDLMBEeydUZ4JoBLtNEaTjBG7DEh7VJpWSeCF5ngNukUrJBlNYZgLJdNeUpkh2i4gYsoE2qKEtEaZ0hbMA29VIekawRpXUG93lGcZtUQxaJcCvOdfKguE2qI5tEuQ1Y4j8aTHlyZJfougFrOOXJkW2i8zqD5b94alT2iXBnTENGKWUhHZtOeXJUAlGq/kucxC+277eDyiEqU/Uj+g8Z08IYu4agGAAAAABJRU5ErkJggg==;" parent="YrSy1kAqM34zxY3bh8e3-2" vertex="1">
          <mxGeometry x="110" y="90" width="38" height="43.98" as="geometry" />
        </mxCell>
        <mxCell id="YrSy1kAqM34zxY3bh8e3-5" value="NGINX" style="text;html=1;strokeColor=none;fillColor=none;align=center;verticalAlign=middle;whiteSpace=wrap;rounded=0;" parent="YrSy1kAqM34zxY3bh8e3-2" vertex="1">
          <mxGeometry x="151.59" y="90" width="60" height="30" as="geometry" />
        </mxCell>
        <mxCell id="YrSy1kAqM34zxY3bh8e3-13" value="" style="rounded=0;whiteSpace=wrap;html=1;" parent="YrSy1kAqM34zxY3bh8e3-2" vertex="1">
          <mxGeometry x="160" y="120" width="43.19" height="20" as="geometry" />
        </mxCell>
        <mxCell id="YrSy1kAqM34zxY3bh8e3-12" value="80" style="text;html=1;strokeColor=none;fillColor=none;align=center;verticalAlign=middle;whiteSpace=wrap;rounded=0;" parent="YrSy1kAqM34zxY3bh8e3-2" vertex="1">
          <mxGeometry x="160" y="116" width="43.19" height="30" as="geometry" />
        </mxCell>
        <mxCell id="YrSy1kAqM34zxY3bh8e3-20" value="" style="edgeStyle=orthogonalEdgeStyle;rounded=0;orthogonalLoop=1;jettySize=auto;html=1;" parent="YrSy1kAqM34zxY3bh8e3-2" edge="1">
          <mxGeometry relative="1" as="geometry">
            <mxPoint x="150" y="280" as="sourcePoint" />
            <mxPoint x="190" y="280" as="targetPoint" />
          </mxGeometry>
        </mxCell>
        <mxCell id="YrSy1kAqM34zxY3bh8e3-21" value="" style="edgeStyle=orthogonalEdgeStyle;rounded=0;orthogonalLoop=1;jettySize=auto;html=1;exitX=-0.01;exitY=0.576;exitDx=0;exitDy=0;exitPerimeter=0;" parent="YrSy1kAqM34zxY3bh8e3-2" edge="1">
          <mxGeometry relative="1" as="geometry">
            <mxPoint x="189" y="292" as="sourcePoint" />
            <mxPoint x="150" y="292" as="targetPoint" />
          </mxGeometry>
        </mxCell>
        <mxCell id="YrSy1kAqM34zxY3bh8e3-7" value="" style="image;sketch=0;aspect=fixed;html=1;points=[];align=center;fontSize=12;image=img/lib/mscae/Docker.svg;" parent="YrSy1kAqM34zxY3bh8e3-2" vertex="1">
          <mxGeometry x="390" y="40" width="70" height="57.4" as="geometry" />
        </mxCell>
        <mxCell id="YrSy1kAqM34zxY3bh8e3-8" value="" style="endArrow=classic;html=1;rounded=0;entryX=0.5;entryY=0;entryDx=0;entryDy=0;" parent="1" target="tWbIXncWVD5Oe4O2OEIH-8" edge="1">
          <mxGeometry width="50" height="50" relative="1" as="geometry">
            <mxPoint x="290" y="180" as="sourcePoint" />
            <mxPoint x="450" y="340" as="targetPoint" />
            <Array as="points">
              <mxPoint x="290" y="200" />
              <mxPoint x="220" y="200" />
            </Array>
          </mxGeometry>
        </mxCell>
        <mxCell id="YrSy1kAqM34zxY3bh8e3-9" value="/*" style="edgeLabel;html=1;align=center;verticalAlign=middle;resizable=0;points=[];" parent="YrSy1kAqM34zxY3bh8e3-8" vertex="1" connectable="0">
          <mxGeometry x="0.0564" y="-2" relative="1" as="geometry">
            <mxPoint as="offset" />
          </mxGeometry>
        </mxCell>
        <mxCell id="YrSy1kAqM34zxY3bh8e3-10" value="" style="endArrow=classic;html=1;rounded=0;entryX=0.5;entryY=0;entryDx=0;entryDy=0;" parent="1" target="tWbIXncWVD5Oe4O2OEIH-13" edge="1">
          <mxGeometry width="50" height="50" relative="1" as="geometry">
            <mxPoint x="290" y="180" as="sourcePoint" />
            <mxPoint x="450" y="340" as="targetPoint" />
            <Array as="points">
              <mxPoint x="290" y="200" />
              <mxPoint x="360" y="200" />
            </Array>
          </mxGeometry>
        </mxCell>
        <mxCell id="YrSy1kAqM34zxY3bh8e3-11" value="/api/*" style="edgeLabel;html=1;align=center;verticalAlign=middle;resizable=0;points=[];" parent="YrSy1kAqM34zxY3bh8e3-10" vertex="1" connectable="0">
          <mxGeometry x="-0.0963" relative="1" as="geometry">
            <mxPoint as="offset" />
          </mxGeometry>
        </mxCell>
        <mxCell id="YrSy1kAqM34zxY3bh8e3-19" value="" style="edgeStyle=orthogonalEdgeStyle;rounded=0;orthogonalLoop=1;jettySize=auto;html=1;exitX=-0.01;exitY=0.576;exitDx=0;exitDy=0;exitPerimeter=0;" parent="1" source="tWbIXncWVD5Oe4O2OEIH-16" edge="1">
          <mxGeometry relative="1" as="geometry">
            <mxPoint x="420" y="330" as="sourcePoint" />
            <mxPoint x="410" y="332" as="targetPoint" />
          </mxGeometry>
        </mxCell>
        <mxCell id="dVF6AS7doi5uUHFE_Twu-1" value="VPC" style="sketch=0;outlineConnect=0;gradientColor=none;html=1;whiteSpace=wrap;fontSize=12;fontStyle=0;shape=mxgraph.aws4.group;grIcon=mxgraph.aws4.group_vpc;strokeColor=#879196;fillColor=none;verticalAlign=top;align=left;spacingLeft=30;fontColor=#879196;dashed=0;" vertex="1" parent="1">
          <mxGeometry x="120" y="600" width="480" height="480" as="geometry" />
        </mxCell>
        <mxCell id="dVF6AS7doi5uUHFE_Twu-2" value="Internet Gateway" style="outlineConnect=0;dashed=0;verticalLabelPosition=bottom;verticalAlign=top;align=center;html=1;shape=mxgraph.aws3.internet_gateway;fillColor=#F58536;gradientColor=none;" vertex="1" parent="1">
          <mxGeometry x="336" y="600" width="49" height="50" as="geometry" />
        </mxCell>
        <mxCell id="dVF6AS7doi5uUHFE_Twu-3" value="" style="sketch=0;outlineConnect=0;fontColor=#232F3E;gradientColor=none;fillColor=#232F3D;strokeColor=none;dashed=0;verticalLabelPosition=bottom;verticalAlign=top;align=center;html=1;fontSize=12;fontStyle=0;aspect=fixed;pointerEvents=1;shape=mxgraph.aws4.internet_alt22;" vertex="1" parent="1">
          <mxGeometry x="321" y="511" width="78" height="78" as="geometry" />
        </mxCell>
        <mxCell id="dVF6AS7doi5uUHFE_Twu-4" value="Public subnet" style="points=[[0,0],[0.25,0],[0.5,0],[0.75,0],[1,0],[1,0.25],[1,0.5],[1,0.75],[1,1],[0.75,1],[0.5,1],[0.25,1],[0,1],[0,0.75],[0,0.5],[0,0.25]];outlineConnect=0;gradientColor=none;html=1;whiteSpace=wrap;fontSize=12;fontStyle=0;container=1;pointerEvents=0;collapsible=0;recursiveResize=0;shape=mxgraph.aws4.group;grIcon=mxgraph.aws4.group_security_group;grStroke=0;strokeColor=#248814;fillColor=#E9F3E6;verticalAlign=top;align=left;spacingLeft=30;fontColor=#248814;dashed=0;" vertex="1" parent="1">
          <mxGeometry x="160" y="760" width="180" height="120" as="geometry" />
        </mxCell>
        <mxCell id="dVF6AS7doi5uUHFE_Twu-14" value="NAT Gateway" style="outlineConnect=0;dashed=0;verticalLabelPosition=bottom;verticalAlign=top;align=center;html=1;shape=mxgraph.aws3.vpc_nat_gateway;fillColor=#F58534;gradientColor=none;" vertex="1" parent="dVF6AS7doi5uUHFE_Twu-4">
          <mxGeometry x="130" width="40" height="40" as="geometry" />
        </mxCell>
        <mxCell id="dVF6AS7doi5uUHFE_Twu-5" value="Public subnet" style="points=[[0,0],[0.25,0],[0.5,0],[0.75,0],[1,0],[1,0.25],[1,0.5],[1,0.75],[1,1],[0.75,1],[0.5,1],[0.25,1],[0,1],[0,0.75],[0,0.5],[0,0.25]];outlineConnect=0;gradientColor=none;html=1;whiteSpace=wrap;fontSize=12;fontStyle=0;container=1;pointerEvents=0;collapsible=0;recursiveResize=0;shape=mxgraph.aws4.group;grIcon=mxgraph.aws4.group_security_group;grStroke=0;strokeColor=#248814;fillColor=#E9F3E6;verticalAlign=top;align=left;spacingLeft=30;fontColor=#248814;dashed=0;" vertex="1" parent="1">
          <mxGeometry x="380" y="760" width="180" height="120" as="geometry" />
        </mxCell>
        <mxCell id="dVF6AS7doi5uUHFE_Twu-15" value="NAT Gateway" style="outlineConnect=0;dashed=0;verticalLabelPosition=bottom;verticalAlign=top;align=center;html=1;shape=mxgraph.aws3.vpc_nat_gateway;fillColor=#F58534;gradientColor=none;" vertex="1" parent="dVF6AS7doi5uUHFE_Twu-5">
          <mxGeometry x="130" width="40" height="40" as="geometry" />
        </mxCell>
        <mxCell id="dVF6AS7doi5uUHFE_Twu-6" value="Private subnet" style="points=[[0,0],[0.25,0],[0.5,0],[0.75,0],[1,0],[1,0.25],[1,0.5],[1,0.75],[1,1],[0.75,1],[0.5,1],[0.25,1],[0,1],[0,0.75],[0,0.5],[0,0.25]];outlineConnect=0;gradientColor=none;html=1;whiteSpace=wrap;fontSize=12;fontStyle=0;container=1;pointerEvents=0;collapsible=0;recursiveResize=0;shape=mxgraph.aws4.group;grIcon=mxgraph.aws4.group_security_group;grStroke=0;strokeColor=#147EBA;fillColor=#E6F2F8;verticalAlign=top;align=left;spacingLeft=30;fontColor=#147EBA;dashed=0;" vertex="1" parent="1">
          <mxGeometry x="160" y="920" width="180" height="120" as="geometry" />
        </mxCell>
        <mxCell id="dVF6AS7doi5uUHFE_Twu-11" value="" style="sketch=0;points=[[0,0,0],[0.25,0,0],[0.5,0,0],[0.75,0,0],[1,0,0],[0,1,0],[0.25,1,0],[0.5,1,0],[0.75,1,0],[1,1,0],[0,0.25,0],[0,0.5,0],[0,0.75,0],[1,0.25,0],[1,0.5,0],[1,0.75,0]];outlineConnect=0;fontColor=#232F3E;gradientColor=#F78E04;gradientDirection=north;fillColor=#D05C17;strokeColor=#ffffff;dashed=0;verticalLabelPosition=bottom;verticalAlign=top;align=center;html=1;fontSize=12;fontStyle=0;aspect=fixed;shape=mxgraph.aws4.resourceIcon;resIcon=mxgraph.aws4.fargate;" vertex="1" parent="dVF6AS7doi5uUHFE_Twu-6">
          <mxGeometry x="71.59" y="50" width="40" height="40" as="geometry" />
        </mxCell>
        <mxCell id="dVF6AS7doi5uUHFE_Twu-16" value="" style="sketch=0;points=[[0,0,0],[0.25,0,0],[0.5,0,0],[0.75,0,0],[1,0,0],[0,1,0],[0.25,1,0],[0.5,1,0],[0.75,1,0],[1,1,0],[0,0.25,0],[0,0.5,0],[0,0.75,0],[1,0.25,0],[1,0.5,0],[1,0.75,0]];outlineConnect=0;fontColor=#232F3E;gradientColor=#F78E04;gradientDirection=north;fillColor=#D05C17;strokeColor=#ffffff;dashed=0;verticalLabelPosition=bottom;verticalAlign=top;align=center;html=1;fontSize=12;fontStyle=0;aspect=fixed;shape=mxgraph.aws4.resourceIcon;resIcon=mxgraph.aws4.fargate;" vertex="1" parent="dVF6AS7doi5uUHFE_Twu-6">
          <mxGeometry x="123.19" y="50" width="40" height="40" as="geometry" />
        </mxCell>
        <mxCell id="dVF6AS7doi5uUHFE_Twu-7" value="Private subnet" style="points=[[0,0],[0.25,0],[0.5,0],[0.75,0],[1,0],[1,0.25],[1,0.5],[1,0.75],[1,1],[0.75,1],[0.5,1],[0.25,1],[0,1],[0,0.75],[0,0.5],[0,0.25]];outlineConnect=0;gradientColor=none;html=1;whiteSpace=wrap;fontSize=12;fontStyle=0;container=1;pointerEvents=0;collapsible=0;recursiveResize=0;shape=mxgraph.aws4.group;grIcon=mxgraph.aws4.group_security_group;grStroke=0;strokeColor=#147EBA;fillColor=#E6F2F8;verticalAlign=top;align=left;spacingLeft=30;fontColor=#147EBA;dashed=0;" vertex="1" parent="1">
          <mxGeometry x="384" y="920" width="180" height="120" as="geometry" />
        </mxCell>
        <mxCell id="dVF6AS7doi5uUHFE_Twu-17" value="" style="sketch=0;points=[[0,0,0],[0.25,0,0],[0.5,0,0],[0.75,0,0],[1,0,0],[0,1,0],[0.25,1,0],[0.5,1,0],[0.75,1,0],[1,1,0],[0,0.25,0],[0,0.5,0],[0,0.75,0],[1,0.25,0],[1,0.5,0],[1,0.75,0]];outlineConnect=0;fontColor=#232F3E;gradientColor=#F78E04;gradientDirection=north;fillColor=#D05C17;strokeColor=#ffffff;dashed=0;verticalLabelPosition=bottom;verticalAlign=top;align=center;html=1;fontSize=12;fontStyle=0;aspect=fixed;shape=mxgraph.aws4.resourceIcon;resIcon=mxgraph.aws4.fargate;" vertex="1" parent="dVF6AS7doi5uUHFE_Twu-7">
          <mxGeometry x="69.99000000000001" y="50" width="40" height="40" as="geometry" />
        </mxCell>
        <mxCell id="dVF6AS7doi5uUHFE_Twu-18" value="" style="sketch=0;points=[[0,0,0],[0.25,0,0],[0.5,0,0],[0.75,0,0],[1,0,0],[0,1,0],[0.25,1,0],[0.5,1,0],[0.75,1,0],[1,1,0],[0,0.25,0],[0,0.5,0],[0,0.75,0],[1,0.25,0],[1,0.5,0],[1,0.75,0]];outlineConnect=0;fontColor=#232F3E;gradientColor=#F78E04;gradientDirection=north;fillColor=#D05C17;strokeColor=#ffffff;dashed=0;verticalLabelPosition=bottom;verticalAlign=top;align=center;html=1;fontSize=12;fontStyle=0;aspect=fixed;shape=mxgraph.aws4.resourceIcon;resIcon=mxgraph.aws4.fargate;" vertex="1" parent="dVF6AS7doi5uUHFE_Twu-7">
          <mxGeometry x="121.59000000000003" y="50" width="40" height="40" as="geometry" />
        </mxCell>
        <mxCell id="dVF6AS7doi5uUHFE_Twu-19" value="" style="sketch=0;points=[[0,0,0],[0.25,0,0],[0.5,0,0],[0.75,0,0],[1,0,0],[0,1,0],[0.25,1,0],[0.5,1,0],[0.75,1,0],[1,1,0],[0,0.25,0],[0,0.5,0],[0,0.75,0],[1,0.25,0],[1,0.5,0],[1,0.75,0]];outlineConnect=0;fontColor=#232F3E;gradientColor=#F78E04;gradientDirection=north;fillColor=#D05C17;strokeColor=#ffffff;dashed=0;verticalLabelPosition=bottom;verticalAlign=top;align=center;html=1;fontSize=12;fontStyle=0;aspect=fixed;shape=mxgraph.aws4.resourceIcon;resIcon=mxgraph.aws4.fargate;" vertex="1" parent="dVF6AS7doi5uUHFE_Twu-7">
          <mxGeometry x="18.399999999999977" y="50" width="40" height="40" as="geometry" />
        </mxCell>
        <mxCell id="dVF6AS7doi5uUHFE_Twu-8" value="Load Balancer" style="outlineConnect=0;dashed=0;verticalLabelPosition=bottom;verticalAlign=top;align=center;html=1;shape=mxgraph.aws3.application_load_balancer;fillColor=#F58534;gradientColor=none;" vertex="1" parent="1">
          <mxGeometry x="336" y="690" width="50" height="50" as="geometry" />
        </mxCell>
        <mxCell id="dVF6AS7doi5uUHFE_Twu-9" value="" style="sketch=0;points=[[0,0,0],[0.25,0,0],[0.5,0,0],[0.75,0,0],[1,0,0],[0,1,0],[0.25,1,0],[0.5,1,0],[0.75,1,0],[1,1,0],[0,0.25,0],[0,0.5,0],[0,0.75,0],[1,0.25,0],[1,0.5,0],[1,0.75,0]];outlineConnect=0;fontColor=#232F3E;gradientColor=#F78E04;gradientDirection=north;fillColor=#D05C17;strokeColor=#ffffff;dashed=0;verticalLabelPosition=bottom;verticalAlign=top;align=center;html=1;fontSize=12;fontStyle=0;aspect=fixed;shape=mxgraph.aws4.resourceIcon;resIcon=mxgraph.aws4.ecs;" vertex="1" parent="1">
          <mxGeometry x="346" y="950" width="30" height="30" as="geometry" />
        </mxCell>
        <mxCell id="dVF6AS7doi5uUHFE_Twu-10" value="" style="sketch=0;points=[[0,0,0],[0.25,0,0],[0.5,0,0],[0.75,0,0],[1,0,0],[0,1,0],[0.25,1,0],[0.5,1,0],[0.75,1,0],[1,1,0],[0,0.25,0],[0,0.5,0],[0,0.75,0],[1,0.25,0],[1,0.5,0],[1,0.75,0]];outlineConnect=0;fontColor=#232F3E;gradientColor=#F78E04;gradientDirection=north;fillColor=#D05C17;strokeColor=#ffffff;dashed=0;verticalLabelPosition=bottom;verticalAlign=top;align=center;html=1;fontSize=12;fontStyle=0;aspect=fixed;shape=mxgraph.aws4.resourceIcon;resIcon=mxgraph.aws4.fargate;" vertex="1" parent="1">
          <mxGeometry x="180" y="970" width="40" height="40" as="geometry" />
        </mxCell>
        <mxCell id="dVF6AS7doi5uUHFE_Twu-20" value="" style="endArrow=classic;html=1;rounded=0;entryX=0.5;entryY=0;entryDx=0;entryDy=0;entryPerimeter=0;" edge="1" parent="1" target="dVF6AS7doi5uUHFE_Twu-8">
          <mxGeometry width="50" height="50" relative="1" as="geometry">
            <mxPoint x="361" y="650" as="sourcePoint" />
            <mxPoint x="570" y="750" as="targetPoint" />
          </mxGeometry>
        </mxCell>
        <mxCell id="dVF6AS7doi5uUHFE_Twu-23" value="ECS Cluster" style="html=1;fontStyle=1;align=left;verticalAlign=top;spacing=0;labelBorderColor=none;dashed=1;strokeWidth=2;spacingLeft=4;spacingTop=-3;fillColor=none;strokeColor=#FF7A6B;" vertex="1" parent="1">
          <mxGeometry x="170" y="820" width="380" height="200" as="geometry" />
        </mxCell>
        <mxCell id="dVF6AS7doi5uUHFE_Twu-24" value="" style="endArrow=classic;html=1;rounded=0;entryX=0.318;entryY=-0.043;entryDx=0;entryDy=0;exitX=0.5;exitY=1;exitDx=0;exitDy=0;exitPerimeter=0;entryPerimeter=0;" edge="1" parent="1" source="dVF6AS7doi5uUHFE_Twu-8" target="dVF6AS7doi5uUHFE_Twu-23">
          <mxGeometry width="50" height="50" relative="1" as="geometry">
            <mxPoint x="680" y="905" as="sourcePoint" />
            <mxPoint x="680" y="775" as="targetPoint" />
          </mxGeometry>
        </mxCell>
        <mxCell id="dVF6AS7doi5uUHFE_Twu-25" value="" style="endArrow=classic;html=1;rounded=0;entryX=0.75;entryY=0;entryDx=0;entryDy=0;" edge="1" parent="1" target="dVF6AS7doi5uUHFE_Twu-23">
          <mxGeometry width="50" height="50" relative="1" as="geometry">
            <mxPoint x="360" y="740" as="sourcePoint" />
            <mxPoint x="275" y="960" as="targetPoint" />
          </mxGeometry>
        </mxCell>
        <mxCell id="dVF6AS7doi5uUHFE_Twu-26" value="" style="endArrow=classic;html=1;rounded=0;exitX=0.197;exitY=-0.043;exitDx=0;exitDy=0;exitPerimeter=0;" edge="1" parent="1" source="dVF6AS7doi5uUHFE_Twu-23" target="dVF6AS7doi5uUHFE_Twu-14">
          <mxGeometry width="50" height="50" relative="1" as="geometry">
            <mxPoint x="371" y="750" as="sourcePoint" />
            <mxPoint x="301" y="957" as="targetPoint" />
          </mxGeometry>
        </mxCell>
        <mxCell id="dVF6AS7doi5uUHFE_Twu-27" value="" style="endArrow=classic;html=1;rounded=0;exitX=0.197;exitY=-0.043;exitDx=0;exitDy=0;exitPerimeter=0;" edge="1" parent="1">
          <mxGeometry width="50" height="50" relative="1" as="geometry">
            <mxPoint x="469" y="947" as="sourcePoint" />
            <mxPoint x="469" y="860" as="targetPoint" />
          </mxGeometry>
        </mxCell>
        <mxCell id="dVF6AS7doi5uUHFE_Twu-28" value="" style="endArrow=classic;html=1;rounded=0;exitX=0.5;exitY=0;exitDx=0;exitDy=0;exitPerimeter=0;entryX=0.145;entryY=0.855;entryDx=0;entryDy=0;entryPerimeter=0;" edge="1" parent="1" source="dVF6AS7doi5uUHFE_Twu-14" target="dVF6AS7doi5uUHFE_Twu-8">
          <mxGeometry width="50" height="50" relative="1" as="geometry">
            <mxPoint x="240" y="810" as="sourcePoint" />
            <mxPoint x="250" y="730" as="targetPoint" />
          </mxGeometry>
        </mxCell>
        <mxCell id="dVF6AS7doi5uUHFE_Twu-29" value="" style="endArrow=classic;html=1;rounded=0;exitX=0.5;exitY=0;exitDx=0;exitDy=0;exitPerimeter=0;entryX=0.855;entryY=0.855;entryDx=0;entryDy=0;entryPerimeter=0;" edge="1" parent="1" source="dVF6AS7doi5uUHFE_Twu-15" target="dVF6AS7doi5uUHFE_Twu-8">
          <mxGeometry width="50" height="50" relative="1" as="geometry">
            <mxPoint x="255" y="820" as="sourcePoint" />
            <mxPoint x="353" y="743" as="targetPoint" />
          </mxGeometry>
        </mxCell>
      </root>
    </mxGraphModel>
  </diagram>
</mxfile>
